<svg width="125" height="125" viewBox="0 0 125 125" fill="none" xmlns="http://www.w3.org/2000/svg">
<mask id="mask0_9193_26667" style="mask-type:alpha" maskUnits="userSpaceOnUse" x="0" y="0" width="125" height="125">
<rect width="125" height="125" rx="62.5" fill="#F5F9FE"/>
</mask>
<g mask="url(#mask0_9193_26667)">
<rect width="125" height="125" rx="62.5" fill="#f5f9fe" />
<g opacity="0.8">
<path d="M117.966 12.1537C121.012 11.3763 123.799 14.0312 122.983 16.9325L81.8039 163.339C80.9879 166.24 77.181 167.212 74.9516 165.088L-37.5505 57.9112C-39.7799 55.7873 -38.7599 52.1606 -35.7144 51.3832L117.966 12.1537Z" fill="url(#paint0_linear_9193_26667)"/>
<path d="M73.063 34.47C73.1765 31.3289 76.5098 29.4044 79.063 31.0059L169.261 87.5825C171.814 89.184 171.672 93.1103 169.006 94.6499L74.7994 149.04C72.1327 150.58 68.9412 148.578 69.0547 145.437L73.063 34.47Z" fill="url(#paint1_linear_9193_26667)"/>
<path d="M51.063 40.47C51.1765 37.3289 54.5098 35.4044 57.063 37.0059L147.261 93.5825C149.814 95.184 149.672 99.1103 147.006 100.65L52.7994 155.04C50.1327 156.58 46.9412 154.578 47.0547 151.437L51.063 40.47Z" fill="url(#paint2_linear_9193_26667)"/>
<circle cx="103" cy="28" r="5" fill="#7bd68f"/>
</g>
</g>
<defs>
<linearGradient id="paint0_linear_9193_26667" x1="157.747" y1="-20.8071" x2="3.52772" y2="120.798" gradientUnits="userSpaceOnUse">
<stop stop-color="#7bd68f"/>
<stop offset="1" stop-color="#7bd68f" stop-opacity="0"/>
</linearGradient>
<linearGradient id="paint1_linear_9193_26667" x1="70.5673" y1="-0.548443" x2="120.04" y2="123.701" gradientUnits="userSpaceOnUse">
<stop stop-color="#7bd68f"/>
<stop offset="1" stop-color="#7bd68f" stop-opacity="0"/>
</linearGradient>
<linearGradient id="paint2_linear_9193_26667" x1="48.5673" y1="5.45156" x2="98.0403" y2="129.701" gradientUnits="userSpaceOnUse">
<stop stop-color="#7bd68f"/>
<stop offset="1" stop-color="#7bd68f" stop-opacity="0"/>
</linearGradient>
</defs>
</svg>
