<svg width="125" height="125" viewBox="0 0 125 125" fill="none" xmlns="http://www.w3.org/2000/svg">
<mask id="mask0_9193_26913" style="mask-type:alpha" maskUnits="userSpaceOnUse" x="0" y="0" width="125" height="125">
<rect width="125" height="125" rx="62.5" fill="#F5F9FE"/>
</mask>
<g mask="url(#mask0_9193_26913)">
<rect width="125" height="125" rx="62.5" fill="#f5f9fe" />
<g opacity="0.8">
<path d="M138.794 140.495C138.794 143.575 135.46 145.499 132.794 143.959L18.8413 78.1691C16.1746 76.6294 16.1746 72.7804 18.8413 71.2408L132.794 5.45044C135.46 3.91084 138.794 5.83534 138.794 8.91454L138.794 140.495Z" fill="url(#paint0_linear_9193_26913)"/>
<path d="M73.0505 62.9929C73.0505 64.5325 71.3839 65.4948 70.0505 64.725L33.4059 43.5682C32.0726 42.7984 32.0726 40.8739 33.4059 40.1041L70.0505 18.9474C71.3839 18.1776 73.0505 19.1398 73.0505 20.6794L73.0505 62.9929Z" fill="url(#paint1_linear_9193_26913)"/>
<path d="M89.3791 62.9929C89.3791 64.5325 87.7125 65.4948 86.3791 64.725L49.7346 43.5682C48.4012 42.7984 48.4012 40.8739 49.7346 40.1041L86.3791 18.9474C87.7125 18.1776 89.3791 19.1398 89.3791 20.6794L89.3791 62.9929Z" fill="url(#paint2_linear_9193_26913)"/>
<ellipse rx="5" ry="5" transform="matrix(0.862043 -0.506836 0.509398 0.860531 88.1472 43.2626)" fill="#fa666c"/>
</g>
</g>
<defs>
<linearGradient id="paint0_linear_9193_26913" x1="144.411" y1="150.534" x2="59.0251" y2="30.5694" gradientUnits="userSpaceOnUse">
<stop stop-color="#fa666c"/>
<stop offset="1" stop-color="#fa666c" stop-opacity="0"/>
</linearGradient>
<linearGradient id="paint1_linear_9193_26913" x1="74.9526" y1="67.51" x2="46.0427" y2="26.8929" gradientUnits="userSpaceOnUse">
<stop stop-color="#fa666c"/>
<stop offset="1" stop-color="#fa666c" stop-opacity="0"/>
</linearGradient>
<linearGradient id="paint2_linear_9193_26913" x1="91.2812" y1="67.51" x2="62.3714" y2="26.8929" gradientUnits="userSpaceOnUse">
<stop stop-color="#fa666c"/>
<stop offset="1" stop-color="#fa666c" stop-opacity="0"/>
</linearGradient>
</defs>
</svg>
