<svg width="125" height="125" viewBox="0 0 125 125" fill="none" xmlns="http://www.w3.org/2000/svg">
<mask id="mask0_9193_26697" style="mask-type:alpha" maskUnits="userSpaceOnUse" x="0" y="0" width="125" height="125">
<rect width="125" height="125" rx="62.5" fill="#F5F9FE"/>
</mask>
<g mask="url(#mask0_9193_26697)">
<rect width="125" height="125" rx="62.5" fill="#f5f9fe" />
<g opacity="0.8">
<path d="M85.2883 58.2036C87.2682 59.7743 87.209 62.7986 85.1669 64.4116L26.042 111.109C23.3649 113.224 19.4945 111.405 19.5662 108.066L21.5429 16.0292C21.6145 12.6976 25.5501 10.8095 28.1401 12.8642L85.2883 58.2036Z" fill="url(#paint0_linear_9193_26697)"/>
<path d="M116.754 58.2055C118.734 59.7763 118.674 62.8006 116.632 64.4135L57.5073 111.111C54.8303 113.226 50.9599 111.407 51.0316 108.068L53.0082 16.0311C53.0798 12.6995 57.0154 10.8114 59.6054 12.8662L116.754 58.2055Z" fill="url(#paint1_linear_9193_26697)"/>
<circle cx="84.7061" cy="42.5047" r="5" transform="rotate(45 84.7061 42.5047)" fill="#ffa927"/>
</g>
</g>
<defs>
<linearGradient id="paint0_linear_9193_26697" x1="86.7361" y1="67.248" x2="17.8469" y2="76.6053" gradientUnits="userSpaceOnUse">
<stop stop-color="#ffa927"/>
<stop offset="1" stop-color="#ffa927" stop-opacity="0"/>
</linearGradient>
<linearGradient id="paint1_linear_9193_26697" x1="99.9016" y1="73.3759" x2="43.3503" y2="66.1385" gradientUnits="userSpaceOnUse">
<stop stop-color="#ffa927"/>
<stop offset="1" stop-color="#ffa927" stop-opacity="0"/>
</linearGradient>
</defs>
</svg>
