<svg width="137" height="127" viewBox="0 0 137 127" fill="none" xmlns="http://www.w3.org/2000/svg">
  <mask id="mask0_7802_9317" style="mask-type:alpha" maskUnits="userSpaceOnUse" x="0" y="0" width="137" height="127">
    <rect x="0.046875" y="0.613281" width="136.047" height="125.807" rx="4.32271" fill="#F5F9FE" />
  </mask>
  <g mask="url(#mask0_7802_9317)">
    <path
      d="M39.5076 116.5C36.4662 115.685 35.5152 111.839 37.8263 109.7L129.446 24.9306C131.796 22.7564 135.621 24.0865 136.115 27.2497L153.927 141.342C154.373 144.199 151.733 146.571 148.939 145.822L39.5076 116.5Z"
      fill="url(#paint0_linear_7802_9317)" />
    <path
      d="M12.7207 59.1692C12.7206 56.09 16.054 54.1655 18.7207 55.7051L123.695 116.312C126.362 117.852 126.362 121.701 123.695 123.24L18.7207 183.847C16.054 185.387 12.7207 183.462 12.7207 180.383L12.7207 59.1692Z"
      fill="url(#paint1_linear_7802_9317)" />
    <path
      d="M64.2225 46.5804C65.0194 43.6061 68.7373 42.6099 70.9146 44.7872L144.586 118.458C146.763 120.636 145.767 124.354 142.793 125.151L42.1559 152.116C39.1817 152.913 36.46 150.191 37.2569 147.217L64.2225 46.5804Z"
      fill="url(#paint2_linear_7802_9317)" />
  </g>
  <defs>
    <linearGradient id="paint0_linear_7802_9317" x1="175.686" y1="107.249" x2="92.1855" y2="52.749"
      gradientUnits="userSpaceOnUse">
      <stop offset="0.0208333" stop-color="#fa666c" />
      <stop offset="1" stop-color="#fa666c" stop-opacity="0" />
    </linearGradient>
    <linearGradient id="paint1_linear_7802_9317" x1="104.686" y1="86.7495" x2="12.6856" y2="106.75"
      gradientUnits="userSpaceOnUse">
      <stop offset="0.015625" stop-color="#fa666c" />
      <stop offset="1" stop-color="#fa666c" stop-opacity="0" />
    </linearGradient>
    <linearGradient id="paint2_linear_7802_9317" x1="147.186" y1="86.749" x2="48.1856" y2="78.749"
      gradientUnits="userSpaceOnUse">
      <stop offset="0.0208333" stop-color="#fa666c" />
      <stop offset="1" stop-color="#fa666c" stop-opacity="0" />
    </linearGradient>
  </defs>
</svg>