<svg width="125" height="125" viewBox="0 0 125 125" fill="none" xmlns="http://www.w3.org/2000/svg">
<mask id="mask0_9193_26817" style="mask-type:alpha" maskUnits="userSpaceOnUse" x="0" y="0" width="125" height="125">
<rect width="125" height="125" rx="62.5" fill="#F5F9FE"/>
</mask>
<g mask="url(#mask0_9193_26817)">
<rect width="125" height="125" rx="62.5" fill="#f5f9fe" />
<g opacity="0.8">
<circle cx="83.2733" cy="46.2616" r="37.0097" fill="url(#paint0_linear_9193_26817)"/>
<path d="M46.1296 21.4219C44.59 18.7552 40.741 18.7552 39.2014 21.4219L-1.50215 91.9226C-3.04176 94.5892 -1.11726 97.9226 1.96194 97.9226L83.3692 97.9226C86.4484 97.9226 88.3729 94.5892 86.8333 91.9226L46.1296 21.4219Z" fill="url(#paint1_linear_9193_26817)"/>
<circle cx="99.5811" cy="46.1211" r="5" fill="#4ab2fe"/>
<rect x="76.0762" y="62.709" width="52.4304" height="52.4304" fill="url(#paint2_linear_9193_26817)"/>
</g>
</g>
<defs>
<linearGradient id="paint0_linear_9193_26817" x1="82.958" y1="-2.63867" x2="82.958" y2="88.8613" gradientUnits="userSpaceOnUse">
<stop stop-color="#4ab2fe"/>
<stop offset="1" stop-color="#4ab2fe" stop-opacity="0"/>
</linearGradient>
<linearGradient id="paint1_linear_9193_26817" x1="40.6095" y1="11.8237" x2="51.458" y2="130.862" gradientUnits="userSpaceOnUse">
<stop stop-color="#4ab2fe"/>
<stop offset="1" stop-color="#4ab2fe" stop-opacity="0"/>
</linearGradient>
<linearGradient id="paint2_linear_9193_26817" x1="66.8238" y1="52.9425" x2="131.458" y2="116.361" gradientUnits="userSpaceOnUse">
<stop stop-color="#4ab2fe"/>
<stop offset="1" stop-color="#4ab2fe" stop-opacity="0"/>
</linearGradient>
</defs>
</svg>
