<svg width="125" height="125" viewBox="0 0 125 125" fill="none" xmlns="http://www.w3.org/2000/svg">
<mask id="mask0_9193_26929" style="mask-type:alpha" maskUnits="userSpaceOnUse" x="0" y="0" width="125" height="125">
<rect width="125" height="125" rx="62.5" fill="#F5F9FE"/>
</mask>
<g mask="url(#mask0_9193_26929)">
<rect width="125" height="125" rx="62.5" fill="#f5f9fe" />
<g opacity="0.8">
<path d="M-14.1364 4.02497C-14.2303 0.947201 -10.9572 -1.0781 -8.24483 0.37943L104.519 60.9739C107.231 62.4315 107.349 66.2787 104.73 67.8989L-4.12801 135.258C-6.74646 136.878 -10.137 135.056 -10.2309 131.978L-14.1364 4.02497Z" fill="url(#paint0_linear_9193_26929)"/>
<path d="M60.2438 27.8098C60.1499 24.7321 63.423 22.7068 66.1354 24.1643L92.7451 38.4633C95.4575 39.9208 95.575 43.768 92.9565 45.3883L67.2683 61.2835C64.6499 62.9037 61.2594 61.0818 61.1654 58.0041L60.2438 27.8098Z" fill="url(#paint1_linear_9193_26929)"/>
<circle cx="49.6161" cy="105.617" r="31.6646" transform="rotate(178.252 49.6161 105.617)" fill="url(#paint2_linear_9193_26929)"/>
<ellipse rx="4.59215" ry="4.59215" transform="matrix(-0.846179 0.532899 -0.535414 -0.84459 69.906 109.649)" fill="#4ab2fe"/>
</g>
</g>
<defs>
<linearGradient id="paint0_linear_9193_26929" x1="-19.9177" y1="-5.76508" x2="66.9053" y2="108.661" gradientUnits="userSpaceOnUse">
<stop stop-color="#4ab2fe"/>
<stop offset="1" stop-color="#4ab2fe" stop-opacity="0"/>
</linearGradient>
<linearGradient id="paint1_linear_9193_26929" x1="58.3024" y1="19.995" x2="85.2697" y2="55.5356" gradientUnits="userSpaceOnUse">
<stop stop-color="#4ab2fe"/>
<stop offset="1" stop-color="#4ab2fe" stop-opacity="0"/>
</linearGradient>
<linearGradient id="paint2_linear_9193_26929" x1="81.2806" y1="109.403" x2="17.9515" y2="93.5707" gradientUnits="userSpaceOnUse">
<stop stop-color="#4ab2fe"/>
<stop offset="1" stop-color="#4ab2fe" stop-opacity="0"/>
</linearGradient>
</defs>
</svg>
